<?xml version="1.0" encoding="UTF-8"?>
<svg width="150px" height="150px" viewBox="0 0 150 150" version="1.1" xmlns="http://www.w3.org/2000/svg" xmlns:xlink="http://www.w3.org/1999/xlink">
    <!-- Generator: Sketch 41.1 (35376) - http://www.bohemiancoding.com/sketch -->
    <title>add</title>
    <desc>Created with Sketch.</desc>
    <defs>
        <circle id="path-1" cx="75" cy="75" r="75"></circle>
    </defs>
    <g id="Icon" stroke="none" stroke-width="1" fill="none" fill-rule="evenodd">
        <g id="add">
            <g id="Icon">
                <g id="App-UI">
                    <g id="Icon">
                        <g id="Oval-Clipped">
                            <mask id="mask-2" fill="white">
                                <use xlink:href="#path-1"></use>
                            </mask>
                            <g id="path-1"></g>
                            <g id="Oval" mask="url(#mask-2)" stroke-width="14" stroke="#1C769A">
                                <circle id="path-1" cx="75" cy="75" r="75"></circle>
                            </g>
                        </g>
                        <path d="M78.4090909,71.5909091 L78.4090909,40.917483 C78.4090909,39.0321394 76.8827889,37.5 75,37.5 C73.1210422,37.5 71.5909091,39.0300592 71.5909091,40.917483 L71.5909091,71.5909091 L40.917483,71.5909091 C39.0321394,71.5909091 37.5,73.1172111 37.5,75 C37.5,76.8789578 39.0300592,78.4090909 40.917483,78.4090909 L71.5909091,78.4090909 L71.5909091,109.082517 C71.5909091,110.967861 73.1172111,112.5 75,112.5 C76.8789578,112.5 78.4090909,110.969941 78.4090909,109.082517 L78.4090909,78.4090909 L109.082517,78.4090909 C110.967861,78.4090909 112.5,76.8827889 112.5,75 C112.5,73.1210422 110.969941,71.5909091 109.082517,71.5909091 L78.4090909,71.5909091 Z" id="Plus-Icon" stroke="#1C769A" stroke-width="7"></path>
                    </g>
                </g>
            </g>
        </g>
    </g>
</svg>