<?xml version="1.0" encoding="UTF-8"?>
<svg width="107px" height="106px" viewBox="0 0 107 106" version="1.1" xmlns="http://www.w3.org/2000/svg" xmlns:xlink="http://www.w3.org/1999/xlink">
    <!-- Generator: Sketch 41.1 (35376) - http://www.bohemiancoding.com/sketch -->
    <title>Group 3</title>
    <desc>Created with Sketch.</desc>
    <defs></defs>
    <g id="Icon" stroke="none" stroke-width="1" fill="none" fill-rule="evenodd">
        <g id="Group-3" fill="#1C769A">
            <g id="Group-2" transform="translate(0.000000, 30.000000)">
                <g id="back">
                    <g id="Back">
                        <g id="App-UI">
                            <g id="iPhone-SE">
                                <g id="Back-Arrow-Blue">
                                    <path d="M25.9654003,0.793930917 C25.0513528,-0.0780495344 23.5593184,-0.0684423718 22.6637982,0.785863568 L0.861643389,21.5846231 C-0.0477336285,22.4521481 -0.033876865,23.8719029 0.861643389,24.7262089 L22.6637982,45.5249685 C23.5731753,46.3924934 25.0497483,46.3904122 25.9654003,45.5169011 L27.387357,44.1603868 C28.3014043,43.2884063 28.317646,41.890141 27.3759731,40.9918064 L8.67910106,23.155416 L27.3759731,5.31902561 C28.2963077,4.44104742 28.3030088,3.02395627 27.387357,2.15044518 L25.9654003,0.793930917 Z" id="Back"></path>
                                </g>
                            </g>
                        </g>
                    </g>
                </g>
                <rect id="Rectangle-4" x="7.84929356" y="19.6232339" width="65.9968603" height="7.06436421" rx="3.5321821"></rect>
            </g>
            <path d="M32.6923077,79 L32.6923077,98.0001931 C32.6923077,102.412452 36.2776878,106 40.7004783,106 L98.530291,106 C102.951752,106 106.538462,102.418364 106.538462,98.0001931 L106.538462,7.9998069 C106.538462,3.58754848 102.953081,0 98.530291,0 L40.7004783,0 C36.2790173,0 32.6923077,3.58163555 32.6923077,7.9998069 L32.6923077,28 L38,28 L38,9.9926688 C38,7.23529396 40.2402674,5 42.9953151,5 L97.0046849,5 C99.7635213,5 102,7.23168856 102,9.9926688 L102,96.0073312 C102,98.764706 99.7597326,101 97.0046849,101 L42.9953151,101 C40.2364787,101 38,98.7683114 38,96.0073312 L38,79 L32.6923077,79 Z" id="Combined-Shape"></path>
            <rect id="Rectangle-5" x="32.6923077" y="10" width="5.30000019" height="21" rx="2.6500001"></rect>
            <rect id="Rectangle-5" x="32.6923077" y="75" width="5.30000019" height="21" rx="2.6500001"></rect>
        </g>
    </g>
</svg>