<?xml version="1.0" encoding="UTF-8"?>
<svg width="23px" height="17px" viewBox="0 0 23 17" version="1.1" xmlns="http://www.w3.org/2000/svg" xmlns:xlink="http://www.w3.org/1999/xlink">
    <!-- Generator: Sketch 41 (35326) - http://www.bohemiancoding.com/sketch -->
    <title>Camera Icon</title>
    <desc>Created with Sketch.</desc>
    <defs></defs>
    <g id="App-UI" stroke="none" stroke-width="1" fill="none" fill-rule="evenodd">
        <g id="iPhone-SE" transform="translate(-45.000000, -516.000000)" fill="#0D2545">
            <g id="Mensaje" transform="translate(26.000000, 494.000000)">
                <path d="M24.4265022,25.3256451 L20.4767445,25.3256451 C19.6609444,25.3256451 19,25.9865373 19,26.8017892 L19,37.5215978 C19,38.3383082 19.661161,38.9977418 20.4767445,38.9977418 L40.4332554,38.9977418 C41.2490555,38.9977418 41.9099998,38.3368496 41.9099998,37.5215978 L41.9099998,26.8017892 C41.9099998,25.9850788 41.2488388,25.3256451 40.4332554,25.3256451 L36.4834976,25.3256451 L34.6036747,22.5830888 C34.3531284,22.2609578 33.820808,22 33.4145303,22 L27.4954696,22 C27.0917426,22 26.5567938,22.2610577 26.3063252,22.5830888 L24.4265022,25.3256451 Z M30.4549999,37.1501612 C33.3120936,37.1501612 35.6282257,34.8340291 35.6282257,31.9769354 C35.6282257,29.1198417 33.3120936,26.8037096 30.4549999,26.8037096 C27.5979062,26.8037096 25.2817742,29.1198417 25.2817742,31.9769354 C25.2817742,34.8340291 27.5979062,37.1501612 30.4549999,37.1501612 Z M34.5196773,31.9769354 C34.5196773,29.7320761 32.6998593,27.912258 30.4549999,27.912258 C28.2101406,27.912258 26.3903225,29.7320761 26.3903225,31.9769354 C26.3903225,34.2217948 28.2101406,36.0416128 30.4549999,36.0416128 C32.6998593,36.0416128 34.5196773,34.2217948 34.5196773,31.9769354 Z M20.4780645,23.4780645 C20.4780645,23.0699083 20.8057168,22.7390323 21.2163952,22.7390323 L22.6958628,22.7390323 C23.1036316,22.7390323 23.4341935,23.0670627 23.4341935,23.4780645 L23.4341935,24.2170968 L20.4780645,24.2170968 L20.4780645,23.4780645 Z M36.7367741,27.912258 C37.1449303,27.912258 37.4758063,27.581382 37.4758063,27.1732258 C37.4758063,26.7650695 37.1449303,26.4341935 36.7367741,26.4341935 C36.3286178,26.4341935 35.9977418,26.7650695 35.9977418,27.1732258 C35.9977418,27.581382 36.3286178,27.912258 36.7367741,27.912258 Z" id="Camera-Icon"></path>
            </g>
        </g>
    </g>
</svg>