<?xml version="1.0" encoding="UTF-8"?>
<svg width="17px" height="23px" viewBox="0 0 17 23" version="1.1" xmlns="http://www.w3.org/2000/svg" xmlns:xlink="http://www.w3.org/1999/xlink">
    <!-- Generator: Sketch 41 (35326) - http://www.bohemiancoding.com/sketch -->
    <title>Trash Icon</title>
    <desc>Created with Sketch.</desc>
    <defs></defs>
    <g id="App-UI" stroke="none" stroke-width="1" fill="none" fill-rule="evenodd">
        <g id="iPhone-SE" transform="translate(-152.000000, -513.000000)" fill="#000000">
            <g id="Eliminar" transform="translate(130.000000, 494.000000)">
                <g id="Icons/Misc/Trash" transform="translate(22.000000, 19.000000)">
                    <path d="M4.69979982,1.78904756 L0.80366829,1.78904756 C0.353561364,1.78904756 0,2.14689995 0,2.58833324 L0,3.38761893 L16.2062063,3.38761893 L16.2062063,2.58833324 C16.2062063,2.14382236 15.8463917,1.78904756 15.402538,1.78904756 L11.5064065,1.78904756 L11.0565548,1.04949548 C10.7683881,0.57575199 10.0830143,0.19047619 9.52665316,0.19047619 L6.67955313,0.19047619 C6.12084988,0.19047619 5.43823172,0.575072226 5.1496515,1.04949548 L4.69979982,1.78904756 Z M0.810310314,4.18690461 L15.395896,4.18690461 L14.1269259,18.5815143 C13.9327147,20.7845567 11.9777303,22.5704754 9.77568388,22.5704754 L6.4305224,22.5704754 C4.22160903,22.5704754 2.2740665,20.7910776 2.0792804,18.5815143 L0.810310314,4.18690461 Z M7.69794799,5.78547598 L8.5082583,5.78547598 L8.5082583,19.3733326 L7.69794799,19.3733326 L7.69794799,5.78547598 Z M11.3443444,5.78547598 L12.1546547,5.78547598 L11.3443444,19.3733326 L10.5340341,19.3733326 L11.3443444,5.78547598 Z M4.86186189,5.78547598 L4.05155157,5.78547598 L4.86186189,19.3733326 L5.6721722,19.3733326 L4.86186189,5.78547598 Z" id="Trash-Icon"></path>
                </g>
            </g>
        </g>
    </g>
</svg>